<svg width="396" height="107.5509909690511" viewBox="0 0 198.77194632688693 53.985151020969006" class="looka-1j8o68f"><defs id="SvgjsDefs2115"></defs><g id="SvgjsG2116" featurekey="sloganFeature-0" transform="matrix(0.5687428358602934,0,0,0.5687428358602934,27.20376051795148,42.604605389241044)" fill="#ffffff"><path d="M8.9 18.86 c0.42 1 -1.82 1.48 -2.08 0.88 l-0.12 -0.28 c-0.66 -1.58 -1.38 -3.38 -2.04 -4.98 l-0.98 0 l0 5.08 c0 0.6 -2.28 0.6 -2.28 0 l0 -12.3 c0 -0.94 0.02 -1.24 1.42 -1.26 l2.06 0 c0.72 0 1.52 0.02 2.14 0.42 c1.36 0.86 1.78 2.38 1.76 3.92 c-0.02 1.28 -0.2 2.56 -1.46 3.5 c-0.14 0.08 -0.26 0.16 -0.38 0.24 c0.64 1.52 1.34 3.26 1.96 4.78 z M6.5 10.76 c0.02 -0.22 0.02 -1.02 -0.02 -1.4 c-0.08 -0.74 -0.36 -1.12 -1.28 -1.12 l-1.52 0 l0 3.96 l1.72 0 c0.92 0 1.06 -1.12 1.1 -1.44 z M14.04 17.72 l2.86 0 c0.6 0 0.6 2.28 0 2.28 l-3.86 0 c-1.28 0 -1.28 0 -1.28 -1.08 l0 -11.84 c0 -1.08 0 -1.08 1.22 -1.1 l3.9 0.02 c0.6 0 0.6 2.28 0 2.28 l-2.84 0 l0 3.64 l2 0 c0.6 0 0.6 2.3 0 2.3 l-2 0 l0 3.5 z M21.36 6 l2.7 0 c3.34 0 3.44 14 0.2 14 l-2.84 0 c-1.26 0 -1.26 0 -1.26 -1.1 l0 -11.8 c0 -1.08 0 -1.08 1.2 -1.1 z M23.24 8.26 l-0.02 0 c-0.8 0 -0.8 0 -0.8 0.76 l0 7.96 c0 0.74 0 0.74 0.84 0.74 l0.12 0 c1.3 0 1.24 -9.46 -0.14 -9.46 z M31.699999999999996 17.72 l2.86 0 c0.6 0 0.6 2.28 0 2.28 l-3.86 0 c-1.28 0 -1.28 0 -1.28 -1.08 l0 -11.84 c0 -1.08 0 -1.08 1.22 -1.1 l3.9 0.02 c0.6 0 0.6 2.28 0 2.28 l-2.84 0 l0 3.64 l2 0 c0.6 0 0.6 2.3 0 2.3 l-2 0 l0 3.5 z M40.099999999999994 17.72 l2.86 0 c0.6 0 0.6 2.28 0 2.28 l-3.86 0 c-1.28 0 -1.28 0 -1.28 -1.08 l0 -11.84 c0 -1.08 0 -1.08 1.22 -1.1 l3.9 0.02 c0.6 0 0.6 2.28 0 2.28 l-2.84 0 l0 3.64 l2 0 c0.6 0 0.6 2.3 0 2.3 l-2 0 l0 3.5 z M57.61999999999999 6.76 l0 12.8 c0 0.6 -2.26 0.6 -2.26 0 l0 -6.64 c-2.32 6.46 -2.36 6.54 -2.4 6.62 c-0.26 0.6 -1.78 0.6 -2.04 0 c-0.04 -0.08 -0.08 -0.16 -2.42 -6.7 l0 6.72 c0 0.6 -2.28 0.6 -2.28 0 l0 -12.8 c0 -0.98 2.02 -0.94 2.22 -0.4 l3.5 9.2 l3.44 -9.2 c0.2 -0.54 2.24 -0.6 2.24 0.4 z M71.28 6.359999999999999 c0.22 -0.6 2.52 -0.42 2.1 0.58 c-0.92 2.2 -2.56 6.22 -2.5 6.12 l0 6.5 c0 0.6 -2.28 0.6 -2.28 0 l0 -6.5 l-2.52 -6.04 c-0.46 -1.1 1.82 -1.32 2.12 -0.58 l1.54 3.94 c0.42 -1.12 1.1 -2.82 1.54 -4.02 z M82.3 17.46 c-0.36 1.54 -1.44 2.54 -3.14 2.54 l-0.52 0 c-1.68 0 -2.76 -1 -3.14 -2.54 c-0.02 -0.12 -0.08 -8.56 -0.06 -8.64 c0.28 -1.68 1.32 -2.78 3.2 -2.82 l0.52 0 c1.9 0.04 2.92 1.14 3.2 2.82 c0.02 0.08 -0.02 8.5 -0.06 8.64 z M80.16 16.14 l0 -6.26 c0 -0.48 -0.12 -1.18 -0.7 -1.46 c-0.34 -0.18 -0.78 -0.18 -1.12 0 c-0.58 0.28 -0.7 0.98 -0.7 1.46 l0 6.26 c0.02 0.48 0.12 1.18 0.7 1.46 c0.34 0.18 0.78 0.18 1.12 0 c0.58 -0.28 0.68 -0.98 0.7 -1.46 z M92.56 6.4399999999999995 l0 8.6 c0 6.6 -7.8 6.64 -7.8 -0.02 l0 -8.6 c0 -0.56 2.28 -0.56 2.28 0 l0 8.6 c0 3.66 3.24 3.68 3.24 0.02 l0 -8.6 c0 -0.6 2.28 -0.6 2.28 0 z M102.86 18.86 c0.42 1 -1.82 1.48 -2.08 0.88 l-0.12 -0.28 c-0.66 -1.58 -1.38 -3.38 -2.04 -4.98 l-0.98 0 l0 5.08 c0 0.6 -2.28 0.6 -2.28 0 l0 -12.3 c0 -0.94 0.02 -1.24 1.42 -1.26 l2.06 0 c0.72 0 1.52 0.02 2.14 0.42 c1.36 0.86 1.78 2.38 1.76 3.92 c-0.02 1.28 -0.2 2.56 -1.46 3.5 c-0.14 0.08 -0.26 0.16 -0.38 0.24 c0.64 1.52 1.34 3.26 1.96 4.78 z M100.46 10.76 c0.02 -0.22 0.02 -1.02 -0.02 -1.4 c-0.08 -0.74 -0.36 -1.12 -1.28 -1.12 l-1.52 0 l0 3.96 l1.72 0 c0.92 0 1.06 -1.12 1.1 -1.44 z M117.33999999999999 6.42 c1.36 0.86 1.78 2.38 1.76 3.92 c-0.02 1.28 -0.2 2.56 -1.46 3.5 c-1.06 0.82 -2.38 0.64 -3.64 0.64 l0 5.08 c0 0.6 -2.28 0.6 -2.28 0 l0 -12.3 c0 -0.94 0.02 -1.24 1.42 -1.26 l2.06 0 c0.72 0 1.52 0.02 2.14 0.42 z M116.82 10.76 c0.02 -0.22 0.02 -1.02 -0.02 -1.4 c-0.08 -0.74 -0.36 -1.12 -1.28 -1.12 l-1.52 0 l0 3.96 l1.72 0 c0.92 0 1.06 -1.12 1.1 -1.44 z M123.48 17.72 l2.86 0 c0.6 0 0.6 2.28 0 2.28 l-3.86 0 c-1.28 0 -1.28 0 -1.28 -1.08 l0 -11.84 c0 -1.08 0 -1.08 1.22 -1.1 l3.9 0.02 c0.6 0 0.6 2.28 0 2.28 l-2.84 0 l0 3.64 l2 0 c0.6 0 0.6 2.3 0 2.3 l-2 0 l0 3.5 z M137.1 18.86 c0.42 1 -1.82 1.48 -2.08 0.88 l-0.12 -0.28 c-0.66 -1.58 -1.38 -3.38 -2.04 -4.98 l-0.98 0 l0 5.08 c0 0.6 -2.28 0.6 -2.28 0 l0 -12.3 c0 -0.94 0.02 -1.24 1.42 -1.26 l2.06 0 c0.72 0 1.52 0.02 2.14 0.42 c1.36 0.86 1.78 2.38 1.76 3.92 c-0.02 1.28 -0.2 2.56 -1.46 3.5 c-0.14 0.08 -0.26 0.16 -0.38 0.24 c0.64 1.52 1.34 3.26 1.96 4.78 z M134.7 10.76 c0.02 -0.22 0.02 -1.02 -0.02 -1.4 c-0.08 -0.74 -0.36 -1.12 -1.28 -1.12 l-1.52 0 l0 3.96 l1.72 0 c0.92 0 1.06 -1.12 1.1 -1.44 z M146.26 16.42 c0.04 0.68 -0.14 1.44 -0.52 2 c-0.18 0.26 -0.38 0.52 -0.64 0.74 c-0.16 0.12 -0.32 0.26 -0.5 0.36 s-0.38 0.18 -0.56 0.26 c-0.6 0.26 -1.32 0.28 -1.94 0.12 c-0.32 -0.08 -0.62 -0.2 -0.9 -0.38 c-0.26 -0.16 -0.54 -0.36 -0.74 -0.6 c-0.22 -0.24 -0.42 -0.5 -0.56 -0.8 c-0.08 -0.18 -0.18 -0.38 -0.24 -0.58 c-0.04 -0.2 -0.1 -0.72 -0.1 -0.92 c0 -0.6 2.24 -0.6 2.24 0 c0 0.5 0.78 1.84 1.98 0.64 c0.5 -0.72 0.04 -1.54 -0.4 -2.14 c-0.68 -0.84 -1.56 -1.48 -2.28 -2.28 c-0.42 -0.46 -0.84 -0.98 -1.1 -1.56 c-0.14 -0.32 -0.26 -0.64 -0.34 -1 c-0.3 -1.66 0.22 -4.62 3.84 -4.28 c1.82 0.18 2.62 1.74 2.62 2.8 c0 0.6 -2.28 0.6 -2.28 0 c0 -0.8 -2.26 -0.9 -1.98 0.86 c0.04 0.18 0.08 0.36 0.16 0.54 c0.12 0.26 0.26 0.48 0.42 0.7 c0.2 0.26 0.4 0.48 0.64 0.7 c0.88 0.86 1.88 1.64 2.52 2.74 c0.38 0.64 0.6 1.34 0.66 2.08 z M155.12 17.46 c-0.36 1.54 -1.44 2.54 -3.14 2.54 l-0.52 0 c-1.68 0 -2.76 -1 -3.14 -2.54 c-0.02 -0.12 -0.08 -8.56 -0.06 -8.64 c0.28 -1.68 1.32 -2.78 3.2 -2.82 l0.52 0 c1.9 0.04 2.92 1.14 3.2 2.82 c0.02 0.08 -0.02 8.5 -0.06 8.64 z M152.98 16.14 l0 -6.26 c0 -0.48 -0.12 -1.18 -0.7 -1.46 c-0.34 -0.18 -0.78 -0.18 -1.12 0 c-0.58 0.28 -0.7 0.98 -0.7 1.46 l0 6.26 c0.02 0.48 0.12 1.18 0.7 1.46 c0.34 0.18 0.78 0.18 1.12 0 c0.58 -0.28 0.68 -0.98 0.7 -1.46 z M164.92 6.42 l0 12.74 c0 1 -1.92 1.02 -2.12 0.52 l-3 -7.36 l0 7.24 c0 0.6 -2.22 0.6 -2.22 0 l0 -12.5 c0 -1.56 1.94 -1.1 2.2 -0.54 l2.94 7.08 l0 -7.18 c0 -0.6 2.2 -0.6 2.2 0 z M172.82 6.42 l2.08 12.7 c0.16 1 -2.1 1.1 -2.22 0.38 l-0.4 -2.4 l-2.34 0 l-0.4 2.4 c-0.1 0.6 -2.38 0.62 -2.22 -0.38 l2.1 -12.7 c0.1 -0.6 3.32 -0.54 3.4 0 z M171.9 14.84 l-0.78 -4.78 l-0.8 4.78 l1.58 0 z M179.58 17.740000000000002 l2.88 0 c0.4 0 0.4 2.26 0 2.26 l-4.02 0 c-1.14 0 -1.14 0 -1.14 -1.1 l0 -12.44 c0 -0.4 2.28 -0.4 2.28 0 l0 11.28 z M187.44000000000003 6.42 l0 13.14 c0 0.6 -2.28 0.6 -2.28 0 l0 -13.14 c0 -0.6 2.28 -0.6 2.28 0 z M192.84000000000003 17.78 l3.52 0 c0.6 0 0.6 2.22 0 2.22 l-5.24 0 c-1 0 -1.52 -0.84 -1.16 -1.68 l4.48 -10.08 l-3.54 0 c-0.6 0 -0.6 -2.24 0 -2.24 l5.26 0 c1 0 1.54 0.86 1.16 1.68 z M202.12000000000003 17.72 l2.86 0 c0.6 0 0.6 2.28 0 2.28 l-3.86 0 c-1.28 0 -1.28 0 -1.28 -1.08 l0 -11.84 c0 -1.08 0 -1.08 1.22 -1.1 l3.9 0.02 c0.6 0 0.6 2.28 0 2.28 l-2.84 0 l0 3.64 l2 0 c0.6 0 0.6 2.3 0 2.3 l-2 0 l0 3.5 z M209.44000000000003 6 l2.7 0 c3.34 0 3.44 14 0.2 14 l-2.84 0 c-1.26 0 -1.26 0 -1.26 -1.1 l0 -11.8 c0 -1.08 0 -1.08 1.2 -1.1 z M211.32000000000002 8.26 l-0.02 0 c-0.8 0 -0.8 0 -0.8 0.76 l0 7.96 c0 0.74 0 0.74 0.84 0.74 l0.12 0 c1.3 0 1.24 -9.46 -0.14 -9.46 z M230.66000000000003 13.08 l0 2.02 c0 0.58 0.1 2.46 -0.44 3.42 c-0.62 1.1 -1.8 1.42 -2.9 1.48 c-1.08 0.06 -2.1 -0.34 -2.86 -1.1 c-0.8 -0.76 -0.92 -1.72 -0.96 -2.44 l0 -6.92 c0.04 -0.72 0.16 -1.68 0.96 -2.44 c0.76 -0.76 1.78 -1.16 2.86 -1.1 c2.32 0.12 3.24 1.54 3.24 3.86 c0 0.52 -2.18 0.6 -2.18 -0.08 c0 -1.56 -0.92 -1.64 -1.86 -1.38 c-0.62 0.28 -0.74 1 -0.74 1.52 l0 6.18 c0.02 0.5 0.08 1.22 0.7 1.5 c0.48 0.16 1.94 0.4 2.06 -0.8 c0.04 -0.18 0.02 -1.08 0.02 -1.3 l-0.02 -1.24 l-0.88 0 c-0.6 0 -0.6 -2.3 0 -2.3 l2.02 0 c0.98 0 0.98 0 0.98 1.12 z M235.74000000000004 6.42 l0 13.14 c0 0.6 -2.28 0.6 -2.28 0 l0 -13.14 c0 -0.6 2.28 -0.6 2.28 0 z M239.68000000000004 6 l4 0 c0.6 0 0.6 2.28 0 2.28 l-2.86 0 l0 3.64 l2 0 c0.6 0 0.6 2.3 0 2.3 l-2 0 l0 5.34 c0 0.6 -2.28 0.6 -2.28 0 l0 -12.46 c0 -1.1 0 -1.1 1.14 -1.1 z M246.18000000000004 6 l7.96 0 c0.6 0 0.6 2.24 0 2.24 l-2.84 0.04 l0 11.28 c0 0.6 -2.28 0.6 -2.28 0 l0 -11.28 l-2.84 -0.04 c-0.6 0 -0.6 -2.24 0 -2.24 z"></path></g><g id="SvgjsG2117" featurekey="nameLeftFeature-0" transform="matrix(2.5709681459661384,0,0,2.5709681459661384,-2.5682263464883452,-15.44507318923034)" fill="#ffffff"><path d="M6.26 6.359999999999999 c0.22 -0.6 2.52 -0.42 2.1 0.58 c-0.92 2.2 -2.56 6.22 -2.5 6.12 l0 6.5 c0 0.6 -2.28 0.6 -2.28 0 l0 -6.5 l-2.52 -6.04 c-0.46 -1.1 1.82 -1.32 2.12 -0.58 l1.54 3.94 c0.42 -1.12 1.1 -2.82 1.54 -4.02 z"></path></g><g id="SvgjsG2118" featurekey="inlineSymbolFeature-0" transform="matrix(0.4241281565629328,0,0,0.4241281565629328,19.75871843437067,-7.447689393775968)" fill="#ffffff"><title xmlns="http://www.w3.org/2000/svg">Gifts</title><path xmlns="http://www.w3.org/2000/svg" d="M26,32.44h4.28A14,14,0,0,1,29,31.68a11.2,11.2,0,0,1-3.73-4.09,11.67,11.67,0,0,1,5.17,2.11,12.62,12.62,0,0,1,2.89,2.74h3a14,14,0,0,0-4.42-4.79,13.34,13.34,0,0,0-7.14-2.59,2.91,2.91,0,0,0-2.19.63,1.89,1.89,0,0,0-.1,1.29A10.59,10.59,0,0,0,26,32.44Z"></path><path xmlns="http://www.w3.org/2000/svg" d="M16.55,32.44h2.89c-2.22-3.45-2.74-7.1-1-9.62,2.77-3.94,10.06-3.61,16.28.73a17.48,17.48,0,0,1,6.94,8.89h2.58c-.93-4-3.9-8-8.09-10.94a20.44,20.44,0,0,0-11.43-3.94c-3.64,0-6.6,1.35-8.33,3.82a9,9,0,0,0-1.35,6.91A14.27,14.27,0,0,0,16.55,32.44Z"></path><path xmlns="http://www.w3.org/2000/svg" d="M46.53,32.44a19.1,19.1,0,0,1,6-6.51c6.23-4.35,13.52-4.68,16.28-.73,1.37,1.95,1.37,4.57.28,7.25h2.66a12.85,12.85,0,0,0,.46-1.78,9,9,0,0,0-1.35-6.91c-1.73-2.46-4.69-3.82-8.33-3.82a20.44,20.44,0,0,0-11.43,3.94,21,21,0,0,0-7.3,8.56Z"></path><path xmlns="http://www.w3.org/2000/svg" d="M56.29,32.44l.49-.36A11.67,11.67,0,0,1,61.95,30a9.6,9.6,0,0,1-1.81,2.47h3.24a8.2,8.2,0,0,0,1.4-3.08,1.89,1.89,0,0,0-.1-1.29,2.91,2.91,0,0,0-2.19-.63A13.34,13.34,0,0,0,55.35,30a15.79,15.79,0,0,0-2.74,2.41Z"></path><rect xmlns="http://www.w3.org/2000/svg" x="52.5" y="79.94" width="2.5" height="25" transform="translate(81.11 -10.93) rotate(45)"></rect><rect xmlns="http://www.w3.org/2000/svg" x="73.5" y="79.94" width="2.5" height="25" transform="translate(87.26 -25.78) rotate(45)"></rect><rect xmlns="http://www.w3.org/2000/svg" x="94.5" y="79.94" width="2.5" height="25" transform="translate(93.41 -40.63) rotate(45)"></rect><polygon xmlns="http://www.w3.org/2000/svg" points="39 92.44 16.25 92.44 16.25 54.94 13.75 54.94 13.75 94.81 39 94.81 39 92.44"></polygon><rect xmlns="http://www.w3.org/2000/svg" x="73.75" y="54.94" width="2.5" height="26.5"></rect><polygon xmlns="http://www.w3.org/2000/svg" points="39 92.44 38.75 92.44 38.75 34.94 51.25 34.94 51.25 81.44 53.75 81.44 53.75 32.44 36.25 32.44 36.25 94.94 39 94.94 39 92.44"></polygon><path xmlns="http://www.w3.org/2000/svg" d="M40,82.44v20h70v-20Zm2.5,17.5v-15h17l-15,15Zm5.52,0,15-15H80.48l-15,15Zm21,0,15-15h17.46l-15,15Zm38.48,0H90l15-15h2.48Z"></path><polygon xmlns="http://www.w3.org/2000/svg" points="36.25 52.44 12.5 52.44 12.5 34.94 36.25 34.94 36.25 32.44 10 32.44 10 54.94 36.25 54.94 36.25 52.44"></polygon><polygon xmlns="http://www.w3.org/2000/svg" points="53.75 32.44 53.75 34.94 77.5 34.94 77.5 52.44 53.75 52.44 53.75 54.94 80 54.94 80 32.44 53.75 32.44"></polygon></g><g id="SvgjsG2119" featurekey="nameRightFeature-0" transform="matrix(2.5641023969012924,0,0,2.5641023969012924,68.43863208062379,-15.307694439508523)" fill="#ffffff"><path d="M6.26 6.359999999999999 c0.22 -0.6 2.52 -0.42 2.1 0.58 c-0.92 2.2 -2.56 6.22 -2.5 6.12 l0 6.5 c0 0.6 -2.28 0.6 -2.28 0 l0 -6.5 l-2.52 -6.04 c-0.46 -1.1 1.82 -1.32 2.12 -0.58 l1.54 3.94 c0.42 -1.12 1.1 -2.82 1.54 -4.02 z M17.28 17.46 c-0.36 1.54 -1.44 2.54 -3.14 2.54 l-0.52 0 c-1.68 0 -2.76 -1 -3.14 -2.54 c-0.02 -0.12 -0.08 -8.56 -0.06 -8.64 c0.28 -1.68 1.32 -2.78 3.2 -2.82 l0.52 0 c1.9 0.04 2.92 1.14 3.2 2.82 c0.02 0.08 -0.02 8.5 -0.06 8.64 z M15.14 16.14 l0 -6.26 c0 -0.48 -0.12 -1.18 -0.7 -1.46 c-0.34 -0.18 -0.78 -0.18 -1.12 0 c-0.58 0.28 -0.7 0.98 -0.7 1.46 l0 6.26 c0.02 0.48 0.12 1.18 0.7 1.46 c0.34 0.18 0.78 0.18 1.12 0 c0.58 -0.28 0.68 -0.98 0.7 -1.46 z M26.9 13.08 l0 2.02 c0 0.58 0.1 2.46 -0.44 3.42 c-0.62 1.1 -1.8 1.42 -2.9 1.48 c-1.08 0.06 -2.1 -0.34 -2.86 -1.1 c-0.8 -0.76 -0.92 -1.72 -0.96 -2.44 l0 -6.92 c0.04 -0.72 0.16 -1.68 0.96 -2.44 c0.76 -0.76 1.78 -1.16 2.86 -1.1 c2.32 0.12 3.24 1.54 3.24 3.86 c0 0.52 -2.18 0.6 -2.18 -0.08 c0 -1.56 -0.92 -1.64 -1.86 -1.38 c-0.62 0.28 -0.74 1 -0.74 1.52 l0 6.18 c0.02 0.5 0.08 1.22 0.7 1.5 c0.48 0.16 1.94 0.4 2.06 -0.8 c0.04 -0.18 0.02 -1.08 0.02 -1.3 l-0.02 -1.24 l-0.88 0 c-0.6 0 -0.6 -2.3 0 -2.3 l2.02 0 c0.98 0 0.98 0 0.98 1.12 z M31.98 6.42 l0 13.14 c0 0.6 -2.28 0.6 -2.28 0 l0 -13.14 c0 -0.6 2.28 -0.6 2.28 0 z M35.92 6 l4 0 c0.6 0 0.6 2.28 0 2.28 l-2.86 0 l0 3.64 l2 0 c0.6 0 0.6 2.3 0 2.3 l-2 0 l0 5.34 c0 0.6 -2.28 0.6 -2.28 0 l0 -12.46 c0 -1.1 0 -1.1 1.14 -1.1 z M42.42 6 l7.96 0 c0.6 0 0.6 2.24 0 2.24 l-2.84 0.04 l0 11.28 c0 0.6 -2.28 0.6 -2.28 0 l0 -11.28 l-2.84 -0.04 c-0.6 0 -0.6 -2.24 0 -2.24 z"></path></g></svg>